<svg width="25" height="25" viewBox="0 0 25 25" fill="none" xmlns="http://www.w3.org/2000/svg">
<g clip-path="url(#clip0_123_209)">
<path d="M14.6095 5.00004C13.216 5.00004 12.4382 5.3298 11.7285 5.98969C11.0187 6.64922 11.25 7.77796 11.25 8.75011V11.2502H8.75011V13.7501H11.2502V20.0001H13.7501V13.75H15.6252L16.2503 11.25H13.75V9.99989C13.75 9.58336 13.7644 9.74396 13.75 8.74993C13.7363 7.85798 14.2901 7.49996 14.7852 7.49996H15.7812L16.2501 5.13894V5.07806C16.0807 5.05509 16.0156 5.058 15.664 5.03449C15.3126 5.0117 14.9609 5.00004 14.6095 5.00004ZM20 0H5.00004C2.23852 0 0 2.23852 0 5.00004V20.0001C0 22.7615 2.23852 25.0002 5.00004 25.0002H20C22.7613 25.0002 25 22.7617 25 20.0001V5.00004C25 2.23852 22.7615 0 20 0ZM22.5001 18.75C22.5001 20.821 20.8212 22.5001 18.7502 22.5001H6.25C4.179 22.5001 2.49993 20.821 2.49993 18.75V6.25C2.49993 4.17882 4.17882 2.49993 6.25 2.49993H18.75C20.821 2.49993 22.4999 4.17882 22.4999 6.25L22.5001 18.75Z" fill="black"/>
</g>
<defs>
<clipPath id="clip0_123_209">
<rect width="25" height="25" fill="white"/>
</clipPath>
</defs>
</svg>
