<svg width="25" height="25" viewBox="0 0 25 25" fill="none" xmlns="http://www.w3.org/2000/svg">
<path d="M12.5001 0C5.5974 0 0 5.73797 0 12.8165C0 18.4791 3.58166 23.2833 8.54833 24.978C9.17307 25.0966 9.4024 24.6999 9.4024 24.3614C9.4024 24.0558 9.39083 23.0462 9.38542 21.9753C5.90786 22.7506 5.17408 20.4631 5.17408 20.4631C4.60546 18.9817 3.78617 18.5878 3.78617 18.5878C2.65204 17.7923 3.87166 17.8086 3.87166 17.8086C5.12689 17.8991 5.78781 19.1294 5.78781 19.1294C6.90271 21.0888 8.71208 20.5223 9.42536 20.1948C9.53755 19.3665 9.86151 18.8011 10.219 18.481C7.44255 18.1569 4.52391 17.058 4.52391 12.1471C4.52391 10.7478 5.01221 9.60448 5.81182 8.70698C5.68203 8.38417 5.25417 7.08057 5.93292 5.31521C5.93292 5.31521 6.9826 4.97077 9.37135 6.62896C10.3684 6.345 11.4378 6.20255 12.5001 6.19771C13.5624 6.20255 14.6326 6.345 15.6316 6.62896C18.0174 4.97077 19.0656 5.31521 19.0656 5.31521C19.746 7.08057 19.318 8.38417 19.1882 8.70698C19.9896 9.60448 20.4746 10.7478 20.4746 12.1471C20.4746 17.0697 17.5504 18.1535 14.7669 18.4708C15.2153 18.8685 15.6148 19.6485 15.6148 20.8443C15.6148 22.5591 15.6003 23.9393 15.6003 24.3614C15.6003 24.7025 15.8253 25.1021 16.4589 24.9763C21.4229 23.2797 25 18.4772 25 12.8165C25 5.73797 19.4034 0 12.5001 0Z" fill="#161514"/>
</svg>
