<svg width="25" height="25" viewBox="0 0 25 25" fill="none" xmlns="http://www.w3.org/2000/svg">
<g clip-path="url(#clip0_123_205)">
<path d="M6.89239 4.98582C6.3251 4.98582 5.8681 5.16282 5.52084 5.5161C5.17358 5.86974 5.00004 6.31818 5.00004 6.86085C5.00004 7.39114 5.17066 7.83611 5.51227 8.19613C5.85352 8.55597 6.29612 8.73571 6.84026 8.73571H6.85776C7.42468 8.73571 7.88204 8.55597 8.22931 8.19613C8.57657 7.83611 8.75011 7.39114 8.75011 6.86085C8.73844 6.31818 8.5649 5.86974 8.22931 5.5161C7.89335 5.16282 7.44801 4.98582 6.89239 4.98582ZM5.00004 20H8.75011V9.99989H5.00004V20ZM20 0H5.00004C2.23852 0 0 2.23852 0 5.00004V20.0001C0 22.7615 2.23852 25.0002 5.00004 25.0002H20C22.7615 25.0002 25 22.7617 25 20.0001V5.00004C25 2.23852 22.7615 0 20 0ZM22.5001 18.75C22.5001 20.821 20.8212 22.5001 18.7502 22.5001H6.25C4.179 22.5001 2.49993 20.821 2.49993 18.75V6.25C2.49993 4.17882 4.17882 2.49993 6.25 2.49993H18.75C20.821 2.49993 22.4999 4.17882 22.4999 6.25L22.5001 18.75ZM16.2501 9.99989C15.1044 9.99989 14.4793 10.1505 13.7501 11.25V9.99989H10.0003L10.1957 12.2916L10.0003 20H13.7503V13.75C13.7503 13.1482 13.6027 13.1019 13.9326 12.7778C14.2626 12.4539 14.4808 12.2918 14.9786 12.2918C15.4877 12.2918 16.2111 12.4716 16.2112 12.9472C16.2112 13.853 16.2503 14.2595 16.2503 15.0001V20.0001H20.0003V14.1669C20.0003 12.7897 19.6558 11.7162 18.9673 10.9463C18.2784 10.1767 17.3728 9.99989 16.2501 9.99989Z" fill="black"/>
</g>
<defs>
<clipPath id="clip0_123_205">
<rect width="25" height="25" fill="white"/>
</clipPath>
</defs>
</svg>
